<svg width="24" height="24" viewBox="0 0 24 24" fill="none" xmlns="http://www.w3.org/2000/svg">
<path d="M21 12C21 13.78 20.4722 15.5201 19.4832 17.0001C18.4943 18.4802 17.0887 19.6337 15.4442 20.3149C13.7996 20.9961 11.99 21.1743 10.2442 20.8271C8.49836 20.4798 6.89471 19.6226 5.63604 18.364C4.37737 17.1053 3.5202 15.5016 3.17293 13.7558C2.82567 12.01 3.0039 10.2004 3.68508 8.55585C4.36627 6.91131 5.51983 5.50571 6.99987 4.51677C8.47991 3.52784 10.22 3 12 3" stroke="white" stroke-width="2" stroke-linecap="round"/>
<path fill-rule="evenodd" clip-rule="evenodd" d="M9.7236 10.9795C9.3416 10.5805 8.7096 10.5645 8.3096 10.9465C7.9106 11.3275 7.8946 11.9605 8.2766 12.3605L10.4996 14.6905C10.6876 14.8875 10.9476 14.9995 11.2196 15.0005H11.2236C11.4946 15.0005 11.7536 14.8905 11.9416 14.6955L18.7186 7.69552C19.1026 7.29852 19.0926 6.66552 18.6956 6.28152C18.2976 5.89652 17.6646 5.90852 17.2816 6.30452L11.2286 12.5575L9.7236 10.9795Z" fill="white"/>
</svg>
